<svg aria-hidden="true" style="position: absolute; width: 0; height: 0; overflow: hidden;" version="1.1" xmlns="http://www.w3.org/2000/svg" xmlns:xlink="http://www.w3.org/1999/xlink">
<defs>

<symbol id="linkedin" viewBox="0 0 20 20">
<path d="M4.531 20v-13.187h-4.102v13.187h4.102zM2.458 5.049c1.323 0 2.382-1.103 2.382-2.426 0-1.279-1.058-2.337-2.382-2.337-1.279 0-2.337 1.058-2.337 2.337 0 1.323 1.058 2.426 2.337 2.426zM19.835 20h0.044v-7.233c0-3.528-0.794-6.263-4.94-6.263-1.985 0-3.308 1.103-3.881 2.117h-0.044v-1.808h-3.925v13.187h4.102v-6.527c0-1.72 0.309-3.352 2.426-3.352s2.161 1.941 2.161 3.484v6.395h4.057z"></path>
</symbol>

<symbol id="icon-angle-right" viewBox="0 0 16 32">
<path  d="M14.019 17.062l-8.5 8.5c-0.588 0.588-1.538 0.588-2.119 0l-1.413-1.412c-0.587-0.588-0.587-1.538 0-2.119l6.025-6.025-6.025-6.025c-0.587-0.588-0.587-1.537 0-2.119l1.406-1.425c0.587-0.588 1.537-0.588 2.119 0l8.5 8.5c0.594 0.588 0.594 1.538 0.006 2.125z"></path>
</symbol>

<symbol id="icon-pencil" viewBox="0 0 32 32">
<path fill="#fff" style="fill: var(--color1, #fff)" d="M31.119 8.881l-2.881 2.881c-0.294 0.294-0.769 0.294-1.063 0l-6.938-6.937c-0.294-0.294-0.294-0.769 0-1.063l2.881-2.881c1.169-1.169 3.069-1.169 4.244 0l3.756 3.756c1.175 1.169 1.175 3.069 0 4.244zM17.762 6.237l-16.413 16.412-1.325 7.594c-0.181 1.025 0.713 1.913 1.738 1.738l7.594-1.331 16.412-16.412c0.294-0.294 0.294-0.769 0-1.063l-6.938-6.937c-0.3-0.294-0.775-0.294-1.069 0zM7.756 21.244c-0.344-0.344-0.344-0.894 0-1.238l9.625-9.625c0.344-0.344 0.894-0.344 1.238 0s0.344 0.894 0 1.238l-9.625 9.625c-0.344 0.344-0.894 0.344-1.237 0zM5.5 26.5h3v2.269l-4.031 0.706-1.944-1.944 0.706-4.031h2.269v3z"></path>
</symbol>

<symbol id="icon-university" viewBox="0 0 32 32">
<path fill="#fff" style="fill: var(--color1, #fff)" d="M31 8v1c0 0.133-0.053 0.26-0.146 0.354s-0.221 0.146-0.354 0.146h-1.5v0.75c0 0.414-0.336 0.75-0.75 0.75h-24.5c-0.414 0-0.75-0.336-0.75-0.75v-0.75h-1.5c-0.133 0-0.26-0.053-0.354-0.146s-0.146-0.221-0.146-0.354v-1c0-0.099 0.029-0.196 0.084-0.278s0.133-0.146 0.224-0.184l14.5-5.5c0.122-0.051 0.26-0.051 0.382 0l14.5 5.5c0.091 0.038 0.169 0.102 0.224 0.184s0.084 0.179 0.084 0.278zM29.5 27h-27c-0.828 0-1.5 0.672-1.5 1.5v1c0 0.133 0.053 0.26 0.146 0.354s0.221 0.146 0.354 0.146h29c0.133 0 0.26-0.053 0.354-0.146s0.146-0.221 0.146-0.354v-1c0-0.828-0.672-1.5-1.5-1.5zM6 12v12h-2.25c-0.414 0-0.75 0.336-0.75 0.75v1.25h26v-1.25c0-0.414-0.336-0.75-0.75-0.75h-2.25v-12h-4v12h-4v-12h-4v12h-4v-12h-4z"></path>
</symbol>

<symbol id="icon-book" viewBox="0 0 32 32">
<path fill="#fff" style="fill: var(--color1, #fff)" d="M22 6c0-3.314-2.686-6-6-6s-6 2.686-6 6c0 3.314 2.686 6 6 6s6-2.686 6-6zM14.599 15.069c-3.708-2.27-9.714-2.894-12.737-3.066-1.016-0.057-1.863 0.716-1.863 1.693v13.925c0 0.896 0.724 1.643 1.656 1.691 2.729 0.143 8.249 0.667 12.065 2.589 0.586 0.295 1.28-0.107 1.28-0.742v-15.374c-0.001-0.292-0.145-0.559-0.401-0.716zM30.137 12.003c-3.022 0.171-9.029 0.796-12.736 3.066-0.256 0.157-0.401 0.435-0.401 0.727v15.362c0 0.637 0.696 1.039 1.284 0.744 3.815-1.92 9.333-2.444 12.061-2.588 0.931-0.049 1.656-0.796 1.656-1.691v-13.926c-0.001-0.977-0.848-1.751-1.863-1.693z"></path>
</symbol>

<symbol id="youtube" viewBox="0 0 28 20">
<path d="M27.29 3.644c-0.304-1.215-1.266-2.177-2.431-2.481-2.177-0.608-10.786-0.608-10.786-0.608s-8.659 0-10.836 0.608c-1.165 0.304-2.127 1.266-2.431 2.481-0.608 2.127-0.608 6.684-0.608 6.684s0 4.507 0.608 6.684c0.304 1.215 1.266 2.127 2.431 2.431 2.177 0.557 10.836 0.557 10.836 0.557s8.608 0 10.786-0.557c1.165-0.304 2.127-1.215 2.431-2.431 0.608-2.177 0.608-6.684 0.608-6.684s0-4.557-0.608-6.684zM11.238 14.43v-8.203l7.19 4.102-7.19 4.102z"></path>
</symbol>

<symbol id="twitter" viewBox="0 0 23 20">
<path d="M20.918 5.177c0.911-0.684 1.732-1.504 2.37-2.461-0.82 0.365-1.777 0.638-2.734 0.729 1.003-0.592 1.732-1.504 2.096-2.643-0.911 0.547-1.96 0.957-3.008 1.185-0.911-0.957-2.142-1.504-3.509-1.504-2.643 0-4.785 2.142-4.785 4.785 0 0.365 0.046 0.729 0.137 1.094-3.965-0.228-7.52-2.142-9.889-5.013-0.41 0.684-0.638 1.504-0.638 2.415 0 1.641 0.82 3.099 2.142 3.965-0.775-0.046-1.549-0.228-2.188-0.592v0.046c0 2.324 1.641 4.238 3.828 4.694-0.365 0.091-0.82 0.182-1.23 0.182-0.319 0-0.592-0.046-0.911-0.091 0.592 1.914 2.37 3.281 4.466 3.327-1.641 1.276-3.691 2.051-5.924 2.051-0.41 0-0.775-0.046-1.139-0.091 2.096 1.367 4.603 2.142 7.337 2.142 8.796 0 13.581-7.246 13.581-13.581 0-0.228 0-0.41 0-0.638z"></path>
</symbol>

<symbol id="facebook" viewBox="0 0 20 20">
<path d="M19.687 10.214c0-5.352-4.336-9.688-9.687-9.688s-9.688 4.336-9.688 9.688c0 4.844 3.516 8.867 8.164 9.57v-6.758h-2.461v-2.813h2.461v-2.109c0-2.422 1.445-3.789 3.633-3.789 1.094 0 2.187 0.195 2.187 0.195v2.383h-1.211c-1.211 0-1.602 0.742-1.602 1.523v1.797h2.695l-0.43 2.813h-2.266v6.758c4.648-0.703 8.203-4.727 8.203-9.57z"></path>
</symbol>

</defs>
</svg>

