<svg aria-hidden="true" style="position: absolute; width: 0; height: 0; overflow: hidden;" version="1.1" xmlns="http://www.w3.org/2000/svg" xmlns:xlink="http://www.w3.org/1999/xlink">
<defs>

<symbol id="icon-linkedin" viewBox="0 0 20 20">
<path d="M4.531 20v-13.187h-4.102v13.187h4.102zM2.458 5.049c1.323 0 2.382-1.103 2.382-2.426 0-1.279-1.058-2.337-2.382-2.337-1.279 0-2.337 1.058-2.337 2.337 0 1.323 1.058 2.426 2.337 2.426zM19.835 20h0.044v-7.233c0-3.528-0.794-6.263-4.94-6.263-1.985 0-3.308 1.103-3.881 2.117h-0.044v-1.808h-3.925v13.187h4.102v-6.527c0-1.72 0.309-3.352 2.426-3.352s2.161 1.941 2.161 3.484v6.395h4.057z"></path>
</symbol>

<symbol id="icon-youtube" viewBox="0 0 28 20">
<path d="M27.29 3.644c-0.304-1.215-1.266-2.177-2.431-2.481-2.177-0.608-10.786-0.608-10.786-0.608s-8.659 0-10.836 0.608c-1.165 0.304-2.127 1.266-2.431 2.481-0.608 2.127-0.608 6.684-0.608 6.684s0 4.507 0.608 6.684c0.304 1.215 1.266 2.127 2.431 2.431 2.177 0.557 10.836 0.557 10.836 0.557s8.608 0 10.786-0.557c1.165-0.304 2.127-1.215 2.431-2.431 0.608-2.177 0.608-6.684 0.608-6.684s0-4.557-0.608-6.684zM11.238 14.43v-8.203l7.19 4.102-7.19 4.102z"></path>
</symbol>

<symbol id="icon-twitter" viewBox="0 0 23 20">
<path d="M20.918 5.177c0.911-0.684 1.732-1.504 2.37-2.461-0.82 0.365-1.777 0.638-2.734 0.729 1.003-0.592 1.732-1.504 2.096-2.643-0.911 0.547-1.96 0.957-3.008 1.185-0.911-0.957-2.142-1.504-3.509-1.504-2.643 0-4.785 2.142-4.785 4.785 0 0.365 0.046 0.729 0.137 1.094-3.965-0.228-7.52-2.142-9.889-5.013-0.41 0.684-0.638 1.504-0.638 2.415 0 1.641 0.82 3.099 2.142 3.965-0.775-0.046-1.549-0.228-2.188-0.592v0.046c0 2.324 1.641 4.238 3.828 4.694-0.365 0.091-0.82 0.182-1.23 0.182-0.319 0-0.592-0.046-0.911-0.091 0.592 1.914 2.37 3.281 4.466 3.327-1.641 1.276-3.691 2.051-5.924 2.051-0.41 0-0.775-0.046-1.139-0.091 2.096 1.367 4.603 2.142 7.337 2.142 8.796 0 13.581-7.246 13.581-13.581 0-0.228 0-0.41 0-0.638z"></path>
</symbol>

<symbol id="icon-facebook" viewBox="0 0 20 20">
<path d="M19.687 10.214c0-5.352-4.336-9.688-9.687-9.688s-9.688 4.336-9.688 9.688c0 4.844 3.516 8.867 8.164 9.57v-6.758h-2.461v-2.813h2.461v-2.109c0-2.422 1.445-3.789 3.633-3.789 1.094 0 2.187 0.195 2.187 0.195v2.383h-1.211c-1.211 0-1.602 0.742-1.602 1.523v1.797h2.695l-0.43 2.813h-2.266v6.758c4.648-0.703 8.203-4.727 8.203-9.57z"></path>
</symbol>

</defs>
</svg>

